<?xml version="1.0" encoding="UTF-8"?>
<svg width="20px" height="20px" viewBox="0 0 20 20" version="1.1" xmlns="http://www.w3.org/2000/svg" xmlns:xlink="http://www.w3.org/1999/xlink">
    <!-- Generator: Sketch 54.1 (76490) - https://sketchapp.com -->
    <title>Group</title>
    <desc>Created with Sketch.</desc>
    <defs>
        <path d="M11.008812,1.000604 C16.536448,1.000604 21.017515,5.473996 21.017515,10.99219 C21.017515,16.510406 16.536448,20.983776 11.008812,20.983776 C5.481107,20.983776 1.000017,16.510406 1.000017,10.99219 C1.000017,5.473996 5.481107,1.000604 11.008812,1.000604 Z" id="path-1"></path>
    </defs>
    <g id="Pages" stroke="none" stroke-width="1" fill="none" fill-rule="evenodd">
        <g id="Shop" transform="translate(-130.000000, -674.000000)">
            <g id="left-column" transform="translate(129.000000, 247.000000)">
                <g id="Group" transform="translate(0.000000, 426.000000)">
                    <g id="Shape-2">
                        <use fill="#000000" xlink:href="#path-1"></use>
                        <path stroke="#000101" stroke-width="2" d="M11.008812,2.000604 C6.03300932,2.000604 2.000017,6.02666392 2.000017,10.99219 C2.000017,15.9577301 6.03300137,19.983776 11.008812,19.983776 C15.9845581,19.983776 20.017515,15.9577257 20.017515,10.99219 C20.017515,6.02666841 15.9845502,2.000604 11.008812,2.000604 Z" stroke-linejoin="square" fill="#F9F6F3"></path>
                    </g>
                    <path d="M11.00087,6.976208 C13.20893,6.976208 14.99886,8.776412 14.99886,10.997024 C14.99886,13.217624 13.20893,15.017828 11.00087,15.017828 C8.79287,15.017828 7.00295,13.217624 7.00295,10.997024 C7.00295,8.776412 8.79287,6.976208 11.00087,6.976208 Z" id="Shape-2-copy" fill="#000000"></path>
                </g>
            </g>
        </g>
    </g>
</svg>